<svg xmlns="http://www.w3.org/2000/svg" width="570.157" height="94.415" viewBox="0 0 570.157 94.415">
  <g id="countrypedia_logo" transform="translate(-126.317 -373)">
    <path id="Caminho_1" data-name="Caminho 1" d="M40.747,1.78A37.321,37.321,0,0,1,22.43-2.714a32.908,32.908,0,0,1-12.8-12.456A34.751,34.751,0,0,1,4.992-33a34.751,34.751,0,0,1,4.64-17.829A32.819,32.819,0,0,1,22.479-63.282a37.6,37.6,0,0,1,18.366-4.494,38.049,38.049,0,0,1,14.068,2.54,29.159,29.159,0,0,1,10.941,7.425L61.262-53.22q-8.011-8.108-20.222-8.108a29.719,29.719,0,0,0-14.751,3.712,27.126,27.126,0,0,0-10.4,10.16A28.162,28.162,0,0,0,12.123-33,28.162,28.162,0,0,0,15.885-18.54a27.126,27.126,0,0,0,10.4,10.16A29.719,29.719,0,0,0,41.04-4.667q12.309,0,20.222-8.206l4.591,4.591A29.574,29.574,0,0,1,54.863-.809,37.789,37.789,0,0,1,40.747,1.78Zm50.018-.1a26.706,26.706,0,0,1-13.384-3.37A24.579,24.579,0,0,1,68-11.017,26.6,26.6,0,0,1,64.584-24.5,26.6,26.6,0,0,1,68-37.98a24.23,24.23,0,0,1,9.378-9.281,27.017,27.017,0,0,1,13.384-3.322,27.017,27.017,0,0,1,13.384,3.322,23.89,23.89,0,0,1,9.33,9.281,26.9,26.9,0,0,1,3.37,13.481,26.9,26.9,0,0,1-3.37,13.481,24.232,24.232,0,0,1-9.33,9.33A26.706,26.706,0,0,1,90.765,1.683Zm0-6.155a19.39,19.39,0,0,0,9.818-2.491,17.367,17.367,0,0,0,6.79-7.083A21.914,21.914,0,0,0,109.815-24.5a21.914,21.914,0,0,0-2.442-10.453,17.367,17.367,0,0,0-6.79-7.083,19.39,19.39,0,0,0-9.818-2.491,19.39,19.39,0,0,0-9.818,2.491,17.692,17.692,0,0,0-6.838,7.083A21.565,21.565,0,0,0,71.617-24.5a21.565,21.565,0,0,0,2.491,10.453,17.692,17.692,0,0,0,6.838,7.083A19.39,19.39,0,0,0,90.765-4.472ZM169.5-50.192V1.194h-6.643V-8.184a19.024,19.024,0,0,1-7.522,7.278A22.634,22.634,0,0,1,144.4,1.683q-10.062,0-15.875-5.617T122.71-20.4v-29.8h6.936V-21.08q0,8.108,4.005,12.309t11.43,4.2q8.108,0,12.8-4.933t4.689-13.726V-50.192Zm37.807-.391q9.671,0,15.386,5.617T228.412-28.6v29.8h-6.936V-27.918q0-8.011-4.005-12.211t-11.43-4.2q-8.3,0-13.139,4.933t-4.836,13.628V1.194h-6.936V-50.192h6.643v9.476a19.3,19.3,0,0,1,7.864-7.278A25.172,25.172,0,0,1,207.311-50.582Zm59.2,48.65A13.134,13.134,0,0,1,261.676.754a19.478,19.478,0,0,1-6.008.928q-7.229,0-11.137-3.908t-3.908-11.039V-44.33H231.44v-5.861h9.183V-61.426h6.936v11.235H263.19v5.861H247.559v30.675q0,4.591,2.3,6.985a8.711,8.711,0,0,0,6.594,2.393A12.76,12.76,0,0,0,260.6-4.96a10.321,10.321,0,0,0,3.468-1.954Zm11.43-38.2a16.808,16.808,0,0,1,7.278-7.815,16.167,16.167,0,0,1,9.33-2.247l3.062,6.252h-2.085q-8.108,0-12.7,4.982t-4.591,13.97V1.194H271.3V-50.192h6.643ZM347.3-50.192,321.609,7.349q-3.126,7.229-7.229,10.258c-2.735,2.019-5.915,2.321-9.758,2.321,0,0,.1-6.085.1-5.959,2.345,0,4.238.057,5.9-1.246a17.733,17.733,0,0,0,4.64-6.643L317.506,1.1,294.549-50.192h7.229L321.121-6.524l19.343-43.668Z" transform="translate(121.826 447.448)"/>
    <line id="Linha_1" data-name="Linha 1" x2="291.039" transform="translate(126.317 464.415)" fill="none" stroke="#000" stroke-width="6"/>
    <line id="Linha_2" data-name="Linha 2" x2="208.82" y2="0.213" transform="translate(487.363 464.202)" fill="none" stroke="#000" stroke-width="6"/>
    <path id="Caminho_2" data-name="Caminho 2" d="M36.351-56.652A27.378,27.378,0,0,1,49.914-53.31,24.033,24.033,0,0,1,59.3-43.974a27.662,27.662,0,0,1,3.391,13.857A27.938,27.938,0,0,1,59.3-16.211a23.942,23.942,0,0,1-9.385,9.385A27.378,27.378,0,0,1,36.351-3.485a24.138,24.138,0,0,1-10.27-2.162,21.361,21.361,0,0,1-7.911-6.29V13.8H8.736V-56.16h9.041v8.255a20.03,20.03,0,0,1,7.96-6.535A25.131,25.131,0,0,1,36.351-56.652ZM35.565-11.74a17.586,17.586,0,0,0,8.992-2.309,16.642,16.642,0,0,0,6.29-6.486,19.472,19.472,0,0,0,2.309-9.582A19.472,19.472,0,0,0,50.847-39.7a16.3,16.3,0,0,0-6.29-6.437,17.886,17.886,0,0,0-8.992-2.26,17.4,17.4,0,0,0-8.894,2.309,16.733,16.733,0,0,0-6.29,6.437,19.193,19.193,0,0,0-2.309,9.533,19.813,19.813,0,0,0,2.26,9.582,16.2,16.2,0,0,0,6.29,6.486A17.663,17.663,0,0,0,35.565-11.74Zm78.129-18.083a27.036,27.036,0,0,1-.2,2.85H71.239a16.356,16.356,0,0,0,6.044,11.056A19.724,19.724,0,0,0,90.108-11.74q9.336,0,15.036-6.29l5.209,6.093a22.815,22.815,0,0,1-8.8,6.29A30.614,30.614,0,0,1,89.813-3.485,30.759,30.759,0,0,1,75.17-6.875a24.182,24.182,0,0,1-9.877-9.484A27.189,27.189,0,0,1,61.8-30.117,27.612,27.612,0,0,1,65.2-43.778a24.288,24.288,0,0,1,9.336-9.484,26.6,26.6,0,0,1,13.415-3.391,26.058,26.058,0,0,1,13.316,3.391,23.81,23.81,0,0,1,9.14,9.484A28.891,28.891,0,0,1,113.694-29.823ZM87.946-48.691A16.306,16.306,0,0,0,76.6-44.564a16.64,16.64,0,0,0-5.356,10.81h33.414A16.75,16.75,0,0,0,99.3-44.515,16.193,16.193,0,0,0,87.946-48.691Zm78.817-31.549V-4.074h-9.041v-8.255a20.429,20.429,0,0,1-7.96,6.584,24.666,24.666,0,0,1-10.614,2.26,27.378,27.378,0,0,1-13.562-3.341,23.942,23.942,0,0,1-9.385-9.385,27.937,27.937,0,0,1-3.391-13.906A27.662,27.662,0,0,1,116.2-43.974a24.033,24.033,0,0,1,9.385-9.336,27.378,27.378,0,0,1,13.562-3.341,24.954,24.954,0,0,1,10.319,2.113,20.033,20.033,0,0,1,7.862,6.241V-80.241Zm-26.829,68.5a17.663,17.663,0,0,0,8.943-2.309,16.2,16.2,0,0,0,6.29-6.486,19.813,19.813,0,0,0,2.26-9.582,19.813,19.813,0,0,0-2.26-9.582,15.874,15.874,0,0,0-6.29-6.437,17.963,17.963,0,0,0-8.943-2.26,17.886,17.886,0,0,0-8.992,2.26,16.3,16.3,0,0,0-6.29,6.437,19.472,19.472,0,0,0-2.309,9.582,19.472,19.472,0,0,0,2.309,9.582,16.642,16.642,0,0,0,6.29,6.486A17.586,17.586,0,0,0,139.934-11.74ZM175.51-64.588h9.434V-4.074H175.51Zm37.246,7.937q10.81,0,16.559,5.307t5.749,15.822V-4.074h-8.943v-6.879A14.912,14.912,0,0,1,219.39-5.4a25.693,25.693,0,0,1-10.368,1.916q-8.747,0-14-4.226a13.557,13.557,0,0,1-5.258-11.105,13.677,13.677,0,0,1,5.012-11.056q5.012-4.177,15.921-4.177H225.63v-1.867q0-6.093-3.538-9.336t-10.417-3.243a27.579,27.579,0,0,0-9.041,1.523,23.292,23.292,0,0,0-7.469,4.078l-3.931-7.076a28.525,28.525,0,0,1,9.631-4.963A40.3,40.3,0,0,1,212.756-56.652Zm-2.162,45.895a17.525,17.525,0,0,0,9.336-2.408,13.778,13.778,0,0,0,5.7-6.83v-7.272H211.086q-11.99,0-11.99,8.059a7.292,7.292,0,0,0,3.047,6.191Q205.189-10.757,210.594-10.757Z" transform="translate(461.409 453.432)"/>
    <rect id="Retângulo_1" data-name="Retângulo 1" width="7" height="12" transform="translate(637 373)" fill="#002776"/>
    <rect id="Retângulo_2" data-name="Retângulo 2" width="7" height="12" transform="translate(645 373)" fill="#fedf00"/>
    <rect id="Retângulo_3" data-name="Retângulo 3" width="7" height="12" transform="translate(654 373)" fill="#009b3a"/>
  </g>
</svg>
