<svg xmlns="http://www.w3.org/2000/svg" width="350.931" height="61.359" viewBox="0 0 350.931 61.359">
  <g id="countrypedia_logo_dark" transform="translate(-725.969 -425.297)">
    <path id="Caminho_4" data-name="Caminho 4" d="M17.938.656a15.921,15.921,0,0,1-8.516-2.2A14.717,14.717,0,0,1,3.906-7.609a19.414,19.414,0,0,1-1.937-8.828v-.844a19.27,19.27,0,0,1,1.984-8.906A14.943,14.943,0,0,1,9.5-32.25a15.684,15.684,0,0,1,8.375-2.187A20.621,20.621,0,0,1,25.953-33a20.061,20.061,0,0,1,5.391,3.188l-.125,10.188h-7.5l-1.281-6.094A4.408,4.408,0,0,0,20.8-26.766a5.36,5.36,0,0,0-1.922-.391,6.4,6.4,0,0,0-3.937,1.125,6.459,6.459,0,0,0-2.2,3.313,18,18,0,0,0-.7,5.438v.844a14.7,14.7,0,0,0,.844,5.469,6.556,6.556,0,0,0,2.219,3.016A5.063,5.063,0,0,0,18.031-7,5.072,5.072,0,0,0,21.5-8.125a6.352,6.352,0,0,0,1.844-3.25h8.469l.125.188a18.052,18.052,0,0,1-2.219,6.453A10.3,10.3,0,0,1,25.281-.719,16.919,16.919,0,0,1,17.938.656ZM48.7.656a16.808,16.808,0,0,1-8.766-2.172,14.341,14.341,0,0,1-5.578-6.062,19.976,19.976,0,0,1-1.937-9.016v-.625a19.73,19.73,0,0,1,1.938-8.937,14.6,14.6,0,0,1,5.563-6.078,16.476,16.476,0,0,1,8.719-2.2,16.548,16.548,0,0,1,8.734,2.188,14.525,14.525,0,0,1,5.547,6.063,19.8,19.8,0,0,1,1.937,8.969v.625a19.9,19.9,0,0,1-1.937,8.984,14.5,14.5,0,0,1-5.547,6.078A16.422,16.422,0,0,1,48.7.656ZM48.7-7a5.136,5.136,0,0,0,3.531-1.187,6.991,6.991,0,0,0,1.984-3.344,17.859,17.859,0,0,0,.641-5.062v-.625A17.442,17.442,0,0,0,54.22-22.2a7.029,7.029,0,0,0-2-3.344,5.2,5.2,0,0,0-3.578-1.2,5.153,5.153,0,0,0-3.547,1.2A6.929,6.929,0,0,0,43.111-22.2a17.852,17.852,0,0,0-.625,4.984v.625a18.41,18.41,0,0,0,.625,5.094A6.733,6.733,0,0,0,45.1-8.172,5.335,5.335,0,0,0,48.7-7ZM79.6.656A10.62,10.62,0,0,1,71.269-2.7q-3.016-3.359-3.016-10.391V-26.875L64.6-27.844v-5.969H78.316v20.781a7.216,7.216,0,0,0,1.141,4.5,4.177,4.177,0,0,0,3.484,1.438,7.164,7.164,0,0,0,3-.625,6.416,6.416,0,0,0,2.344-1.812V-26.875l-3.844-.969v-5.969H98.347V-6.906l4.156.969V0H89.566L88.91-4.062a11.12,11.12,0,0,1-3.984,3.5A11.438,11.438,0,0,1,79.6.656ZM101.833,0V-5.937l4.156-.969V-26.875l-4.781-.969v-5.969h14.219l.375,4.781a12.268,12.268,0,0,1,4.172-3.984,11.089,11.089,0,0,1,5.609-1.422,9.67,9.67,0,0,1,7.7,3.219q2.8,3.219,2.8,10.156V-6.906l4.156.969V0H122.458V-5.937l3.563-.969V-21.062q0-3.062-1.234-4.344a4.7,4.7,0,0,0-3.547-1.281,6.322,6.322,0,0,0-3.031.688,6.235,6.235,0,0,0-2.187,2V-6.906l3.25.969V0Zm50.33.688q-5,0-7.656-2.7t-2.656-8.609V-26.812h-4.437v-7h4.438v-8.312h9.969v8.313h5.906v7h-5.906v16.188a3.366,3.366,0,0,0,.8,2.531,3.041,3.041,0,0,0,2.172.75,12.739,12.739,0,0,0,1.375-.078q.719-.078,1.313-.2l.781,7.406a26.53,26.53,0,0,1-2.984.656A19.458,19.458,0,0,1,152.163.688ZM159.117,0V-5.937l4.156-.969V-26.875l-4.75-.969v-5.969H172.68l.313,4.156.063.813a10.247,10.247,0,0,1,2.938-4.219,6.765,6.765,0,0,1,4.313-1.375,13.058,13.058,0,0,1,1.672.125,12.62,12.62,0,0,1,1.828.375l-1.031,9.219-4.625-.219a5.544,5.544,0,0,0-2.844.516,6.318,6.318,0,0,0-1.969,1.766v15.75l4.156.969V0Zm34.361,13.656a17.5,17.5,0,0,1-2.687-.219,20.242,20.242,0,0,1-2.75-.625l1.188-7.25q.594.125,1.25.2a10.354,10.354,0,0,0,1.219.078,6.736,6.736,0,0,0,3.484-.875A4.409,4.409,0,0,0,197.2,2.344l.531-1.656L186.635-27.219l-4.344-.625v-5.969h19.125v5.969l-4.156.625,4.906,14.313.375,1.031h.188l5.813-15.437-3.969-.531v-5.969h17.594v5.969l-3.906.531L205.478,5a18.489,18.489,0,0,1-2.391,4.266,10.928,10.928,0,0,1-3.828,3.188A12.563,12.563,0,0,1,193.478,13.656Z" transform="translate(724 473)" fill="#2c2c2c"/>
    <path id="Caminho_3" data-name="Caminho 3" d="M1.729,12.188v-5.6l4.043-.908V-25.2L1.26-26.1v-5.6H14.5l.41,3.633a9.525,9.525,0,0,1,3.223-3.12,9.122,9.122,0,0,1,4.629-1.1,10.344,10.344,0,0,1,6.489,2.08,13.087,13.087,0,0,1,4.16,5.815,23.917,23.917,0,0,1,1.45,8.687v.615a21.712,21.712,0,0,1-1.45,8.262,12.207,12.207,0,0,1-4.189,5.493A11.051,11.051,0,0,1,22.646.615,9.777,9.777,0,0,1,18.34-.278,8.881,8.881,0,0,1,15.146-2.93V5.684l3.838.908v5.6ZM19.834-6.562a4.548,4.548,0,0,0,4.321-2.271,12.851,12.851,0,0,0,1.274-6.255V-15.7a18.634,18.634,0,0,0-.571-4.878,6.836,6.836,0,0,0-1.816-3.267,4.572,4.572,0,0,0-3.267-1.172,5.38,5.38,0,0,0-2.725.688,4.912,4.912,0,0,0-1.9,2.007V-8.936a4.541,4.541,0,0,0,1.919,1.772A6.17,6.17,0,0,0,19.834-6.562ZM50.993.615a15.659,15.659,0,0,1-8.057-2.007A13.934,13.934,0,0,1,37.619-6.9a16.478,16.478,0,0,1-1.89-7.954v-1.113a19.75,19.75,0,0,1,1.729-8.467,13.541,13.541,0,0,1,4.98-5.786,13.908,13.908,0,0,1,7.793-2.065,14.589,14.589,0,0,1,7.266,1.67,10.8,10.8,0,0,1,4.5,4.878,17.951,17.951,0,0,1,1.538,7.808v4.98H45.485l-.029.205a7.972,7.972,0,0,0,1.025,3.179,5.864,5.864,0,0,0,2.3,2.2,7.477,7.477,0,0,0,3.618.806,16.023,16.023,0,0,0,4.146-.527A19.265,19.265,0,0,0,60.573-8.7l2.314,5.742A18.354,18.354,0,0,1,57.819-.41,21.153,21.153,0,0,1,50.993.615Zm-5.449-19.57H54.86v-.762a9.434,9.434,0,0,0-.439-3.062,3.8,3.8,0,0,0-1.406-1.948,4.429,4.429,0,0,0-2.578-.674,4.2,4.2,0,0,0-2.681.82,5.083,5.083,0,0,0-1.582,2.241,13.252,13.252,0,0,0-.747,3.237ZM76,.615a10.707,10.707,0,0,1-6.445-1.948,12.24,12.24,0,0,1-4.131-5.493,21.909,21.909,0,0,1-1.436-8.262V-15.7a23.888,23.888,0,0,1,1.45-8.7,13.2,13.2,0,0,1,4.131-5.8,10.043,10.043,0,0,1,6.343-2.08,9.126,9.126,0,0,1,4.468,1.04,10.219,10.219,0,0,1,3.3,2.944V-39.2l-4.512-.908v-5.6H93.109V-6.475l3.9.908V0H84.935l-.7-3.9A10.259,10.259,0,0,1,80.76-.527,9.465,9.465,0,0,1,76,.615ZM78.87-6.65a6.045,6.045,0,0,0,2.769-.63,5.238,5.238,0,0,0,2.036-1.831v-13.1a5.787,5.787,0,0,0-2.007-2.08,5.2,5.2,0,0,0-2.739-.732,4.388,4.388,0,0,0-3.179,1.172,6.872,6.872,0,0,0-1.772,3.267,19.1,19.1,0,0,0-.557,4.878v.615a12.965,12.965,0,0,0,1.23,6.211A4.417,4.417,0,0,0,78.87-6.65ZM96,0V-5.566l3.926-.908V-25.2L95.439-26.1v-5.6h13.887V-6.475l3.926.908V0Zm3.633-38.057V-45.7h9.727v7.646ZM123.4.615a10.721,10.721,0,0,1-7.515-2.578,8.9,8.9,0,0,1-2.827-6.914,8.93,8.93,0,0,1,1.6-5.244,10.374,10.374,0,0,1,4.79-3.574,21.313,21.313,0,0,1,7.939-1.289h3.779v-2.109a5.087,5.087,0,0,0-1.216-3.472,4.662,4.662,0,0,0-3.706-1.392,7.276,7.276,0,0,0-2.183.308,6.889,6.889,0,0,0-1.772.835l-.674,4.1h-6.709l-.117-8.5a32.715,32.715,0,0,1,5.508-2.2,22.693,22.693,0,0,1,6.533-.879q6.328,0,10.034,2.93a10.055,10.055,0,0,1,3.706,8.379V-8.613q0,.674.015,1.3a7.022,7.022,0,0,0,.132,1.216l3.34.527V0H132.78q-.352-.674-.747-1.582A7.556,7.556,0,0,1,131.49-3.4a11.508,11.508,0,0,1-3.4,2.93A9.452,9.452,0,0,1,123.4.615Zm2.7-6.8a6.663,6.663,0,0,0,2.827-.63,6.026,6.026,0,0,0,2.241-1.743v-4.8h-3.721a5.644,5.644,0,0,0-3.735,1.1,3.468,3.468,0,0,0-1.3,2.769,3.053,3.053,0,0,0,1.011,2.432A3.94,3.94,0,0,0,126.1-6.182Z" transform="translate(931.841 472)" fill="none" stroke="#2c2c2c" strokeWidth="2"/>
  </g>
</svg>
